<svg width="24" height="24" viewBox="0 0 24 24" fill="none" xmlns="http://www.w3.org/2000/svg">
<path d="M11.6281 1.09033C13.012 1.09033 14.3823 1.3629 15.6608 1.89247C16.9393 2.42205 18.1009 3.19826 19.0795 4.17678C20.058 5.1553 20.8342 6.31698 21.3638 7.59549C21.8933 8.87399 22.1659 10.2443 22.1659 11.6281C22.1659 13.012 21.8933 14.3823 21.3638 15.6608C20.8342 16.9393 20.058 18.1009 19.0795 19.0795C18.1009 20.058 16.9393 20.8342 15.6608 21.3638C14.3823 21.8933 13.012 22.1659 11.6281 22.1659C10.2443 22.1659 8.87398 21.8933 7.59548 21.3638C6.31698 20.8342 5.1553 20.058 4.17678 19.0795C3.19825 18.1009 2.42204 16.9393 1.89247 15.6608C1.3629 14.3823 1.09033 13.012 1.09033 11.6281C1.09033 10.2443 1.3629 8.87398 1.89248 7.59548C2.42205 6.31698 3.19826 5.1553 4.17678 4.17678C5.15531 3.19825 6.31699 2.42204 7.59549 1.89247C8.87399 1.3629 10.2443 1.09033 11.6281 1.09033L11.6281 1.09033Z" stroke="#E4E7EC" stroke-width="2.18023" stroke-linecap="round" stroke-linejoin="round"/>
</svg>
