<svg width="16" height="16" viewBox="0 0 16 16" fill="none" xmlns="http://www.w3.org/2000/svg">
<g clip-path="url(#clip0_1888_53974)">
<path d="M4.05699 6.81783L4.22638 9.24023M11.3242 6.30965L11.4936 8.73205M1.55836 5.89714L1.88021 10.4997C1.92764 11.178 1.95136 11.5172 2.10149 11.7671C2.23355 11.9868 2.43179 12.1592 2.66781 12.2594C2.93614 12.3733 3.2753 12.3495 3.95364 12.3021L12.1898 11.7262C12.8681 11.6787 13.2073 11.655 13.4572 11.5049C13.6769 11.3728 13.8493 11.1746 13.9495 10.9386C14.0634 10.6702 14.0396 10.3311 13.9922 9.65274L13.6704 5.05018C13.6229 4.37185 13.5992 4.03268 13.4491 3.78282C13.317 3.56304 13.1188 3.39071 12.8828 3.29052C12.6144 3.17662 12.2753 3.20034 11.5969 3.24778L3.36077 3.8237C2.68244 3.87114 2.34327 3.89485 2.09341 4.04498C1.87363 4.17704 1.70129 4.37529 1.60111 4.61131C1.48721 4.87963 1.51093 5.2188 1.55836 5.89714ZM9.28929 7.66907C9.34776 8.50523 8.71731 9.23047 7.88116 9.28894C7.045 9.34741 6.31976 8.71697 6.26129 7.88081C6.20282 7.04465 6.83326 6.31941 7.66942 6.26094C8.50558 6.20247 9.23082 6.83291 9.28929 7.66907Z" stroke="#667085" stroke-width="1.11009" stroke-linecap="round" stroke-linejoin="round"/>
</g>
<defs>
<clipPath id="clip0_1888_53974">
<rect width="14.5699" height="14.5699" fill="white" transform="translate(0 1.01634) rotate(-4)"/>
</clipPath>
</defs>
</svg>
