<svg width="16" height="16" viewBox="0 0 16 16" fill="none" xmlns="http://www.w3.org/2000/svg">
<g clip-path="url(#clip0_1870_3762)">
<path d="M4.00004 6.66683V9.3335M12 6.66683V9.3335M1.33337 5.46683L1.33337 10.5335C1.33337 11.2802 1.33337 11.6536 1.4787 11.9388C1.60653 12.1897 1.8105 12.3937 2.06139 12.5215C2.3466 12.6668 2.71997 12.6668 3.46671 12.6668L12.5334 12.6668C13.2801 12.6668 13.6535 12.6668 13.9387 12.5215C14.1896 12.3937 14.3936 12.1897 14.5214 11.9388C14.6667 11.6536 14.6667 11.2802 14.6667 10.5335V5.46683C14.6667 4.72009 14.6667 4.34673 14.5214 4.06151C14.3936 3.81063 14.1896 3.60665 13.9387 3.47882C13.6535 3.3335 13.2801 3.3335 12.5334 3.3335L3.46671 3.3335C2.71997 3.3335 2.3466 3.3335 2.06139 3.47882C1.8105 3.60665 1.60653 3.81063 1.4787 4.06151C1.33337 4.34672 1.33337 4.72009 1.33337 5.46683ZM9.66671 8.00016C9.66671 8.92064 8.92052 9.66683 8.00004 9.66683C7.07957 9.66683 6.33337 8.92064 6.33337 8.00016C6.33337 7.07969 7.07957 6.3335 8.00004 6.3335C8.92052 6.3335 9.66671 7.07969 9.66671 8.00016Z" stroke="white" stroke-width="1.33333" stroke-linecap="round" stroke-linejoin="round"/>
</g>
<defs>
<clipPath id="clip0_1870_3762">
<rect width="16" height="16" fill="white"/>
</clipPath>
</defs>
</svg>
