<svg width="17" height="17" viewBox="0 0 17 17" fill="none" xmlns="http://www.w3.org/2000/svg">
<g clip-path="url(#clip0_1888_54070)">
<path d="M5.754 10.2495L5.84293 11.5213M8.11966 7.52816L8.38645 11.3434M10.4853 4.80678L10.93 11.1656M5.89361 14.0737L11.235 13.7002C12.3034 13.6255 12.8376 13.5881 13.2311 13.3517C13.5773 13.1437 13.8487 12.8315 14.0065 12.4597C14.1859 12.0371 14.1485 11.5029 14.0738 10.4346L13.7003 5.09316C13.6256 4.02478 13.5882 3.49059 13.3518 3.09707C13.1438 2.75091 12.8315 2.47948 12.4598 2.32169C12.0372 2.14231 11.503 2.17966 10.4346 2.25437L5.09324 2.62788C4.02486 2.70258 3.49067 2.73994 3.09714 2.97639C2.75099 3.18439 2.47956 3.49662 2.32177 3.86836C2.14239 4.29096 2.17974 4.82515 2.25445 5.89353L2.62795 11.2349C2.70266 12.3033 2.74002 12.8375 2.97647 13.231C3.18446 13.5772 3.4967 13.8486 3.86844 14.0064C4.29104 14.1858 4.82523 14.1484 5.89361 14.0737Z" stroke="#1D1834" stroke-width="1.16559" stroke-linecap="round" stroke-linejoin="round"/>
</g>
<defs>
<clipPath id="clip0_1888_54070">
<rect width="15.2984" height="15.2984" fill="white" transform="translate(0 1.06738) rotate(-4)"/>
</clipPath>
</defs>
</svg>
