<svg width="16" height="16" viewBox="0 0 16 16" fill="none" xmlns="http://www.w3.org/2000/svg">
<g clip-path="url(#clip0_1888_53945)">
<path d="M10.8733 4.21136L4.67749 11.3388M5.59226 7.01489L5.42286 4.59249M4.29636 5.88838L6.71876 5.71899M8.83199 9.83115L11.2544 9.66176M5.61299 13.4033L10.7 13.0476C11.7175 12.9765 12.2263 12.9409 12.6011 12.7157C12.9307 12.5176 13.1892 12.2202 13.3395 11.8662C13.5104 11.4637 13.4748 10.955 13.4036 9.93746L13.0479 4.85042C12.9768 3.83292 12.9412 3.32416 12.716 2.94938C12.5179 2.6197 12.2205 2.3612 11.8665 2.21093C11.464 2.04008 10.9553 2.07566 9.93777 2.14681L4.85073 2.50253C3.83322 2.57368 3.32447 2.60925 2.94968 2.83445C2.62001 3.03254 2.36151 3.32991 2.21123 3.68394C2.04039 4.08642 2.07597 4.59517 2.14712 5.61268L2.50284 10.6997C2.57399 11.7172 2.60956 12.226 2.83476 12.6008C3.03285 12.9304 3.33022 13.1889 3.68425 13.3392C4.08673 13.5101 4.59548 13.4745 5.61299 13.4033Z" stroke="#667085" stroke-width="1.11009" stroke-linecap="round" stroke-linejoin="round"/>
</g>
<defs>
<clipPath id="clip0_1888_53945">
<rect width="14.5699" height="14.5699" fill="white" transform="translate(0 1.01634) rotate(-4)"/>
</clipPath>
</defs>
</svg>
