<svg width="16" height="16" viewBox="0 0 16 16" fill="none" xmlns="http://www.w3.org/2000/svg">
<g clip-path="url(#clip0_1888_53829)">
<path d="M6.2337 11.8386L9.8673 11.5846M4.87429 9.80374L10.9303 9.38026M3.11257 2.01563L11.591 1.42277C12.2599 1.37599 12.8443 1.9406 12.8963 2.68385L13.555 12.1043C13.607 12.8475 13.1068 13.488 12.4379 13.5348L3.95952 14.1276C3.29059 14.1744 2.70619 13.6098 2.65421 12.8666L1.99547 3.44611C1.9435 2.70285 2.44364 2.06241 3.11257 2.01563ZM7.52868 4.27005C7.0719 3.82784 6.35634 3.75033 5.85559 4.21953C5.35483 4.68873 5.33059 5.41635 5.7833 5.89821C6.236 6.38006 7.75262 7.4725 7.75262 7.4725C7.75262 7.4725 9.10243 6.17962 9.48368 5.63945C9.86492 5.09928 9.74846 4.37693 9.17846 3.98717C8.60847 3.59741 7.91947 3.76857 7.52868 4.27005Z" stroke="#667085" stroke-width="1.11009" stroke-linecap="round" stroke-linejoin="round"/>
</g>
<defs>
<clipPath id="clip0_1888_53829">
<rect width="14.5699" height="14.5699" fill="white" transform="translate(0 1.01634) rotate(-4)"/>
</clipPath>
</defs>
</svg>
