<svg width="24" height="24" viewBox="0 0 24 24" fill="none" xmlns="http://www.w3.org/2000/svg">
<path d="M8.72069 17.9264H14.5346M6.78271 14.5349H16.4726M4.84472 1.93799H18.4106C19.4809 1.93799 20.3486 2.90206 20.3486 4.0913V19.1645C20.3486 20.3538 19.4809 21.3178 18.4106 21.3178H4.84472C3.7744 21.3178 2.90674 20.3538 2.90674 19.1645V4.0913C2.90674 2.90206 3.7744 1.93799 4.84472 1.93799ZM11.6253 6.01932C10.9473 5.26435 9.81654 5.06126 8.96696 5.75259C8.11737 6.44393 7.99776 7.5998 8.66495 8.41745C9.33213 9.23509 11.6253 11.1434 11.6253 11.1434C11.6253 11.1434 13.9186 9.23509 14.5857 8.41745C15.2529 7.5998 15.1479 6.43665 14.2837 5.75259C13.4196 5.06853 12.3034 5.26435 11.6253 6.01932Z" stroke="url(#paint0_linear_67_33029)" stroke-width="1.35465" stroke-linecap="round" stroke-linejoin="round"/>
<defs>
<linearGradient id="paint0_linear_67_33029" x1="1.15071" y1="16.3933" x2="25.9127" y2="15.8869" gradientUnits="userSpaceOnUse">
<stop stop-color="#1D1834"/>
<stop offset="1" stop-color="#56479A"/>
</linearGradient>
</defs>
</svg>
