<svg width="60" height="60" viewBox="0 0 60 60" fill="none" xmlns="http://www.w3.org/2000/svg">
<path d="M43.75 27.5L41.7889 23.5777C41.1251 22.2503 40.7933 21.5865 40.3499 21.0114C39.9565 20.501 39.499 20.0435 38.9886 19.6501C38.4135 19.2067 37.7497 18.8749 36.4223 18.2111L32.5 16.25L36.4223 14.2889C37.7497 13.6251 38.4135 13.2933 38.9886 12.8499C39.499 12.4565 39.9565 11.999 40.3499 11.4886C40.7933 10.9135 41.1251 10.2497 41.7889 8.92229L43.75 5L45.7111 8.92229C46.3749 10.2497 46.7067 10.9135 47.1501 11.4886C47.5435 11.999 48.001 12.4565 48.5114 12.8499C49.0865 13.2933 49.7503 13.6251 51.0777 14.2889L55 16.25L51.0777 18.2111C49.7503 18.8749 49.0865 19.2067 48.5114 19.6501C48.001 20.0435 47.5435 20.501 47.1501 21.0114C46.7067 21.5865 46.3749 22.2503 45.7111 23.5777L43.75 27.5Z" fill="url(#paint0_linear_67_31024)"/>
<path d="M22.5 55.0001L19.5534 47.3391C18.8484 45.506 18.4959 44.5895 17.9477 43.8185C17.4619 43.1352 16.8649 42.5383 16.1816 42.0524C15.4107 41.5042 14.4941 41.1517 12.661 40.4467L5 37.5001L12.661 34.5536C14.4941 33.8485 15.4107 33.496 16.1816 32.9478C16.8649 32.462 17.4619 31.865 17.9477 31.1817C18.4959 30.4108 18.8484 29.4942 19.5534 27.6612L22.5 20.0001L25.4466 27.6612C26.1516 29.4942 26.5041 30.4108 27.0523 31.1817C27.5381 31.865 28.1351 32.462 28.8184 32.9478C29.5893 33.496 30.5059 33.8485 32.339 34.5536L40 37.5001L32.339 40.4467C30.5059 41.1517 29.5893 41.5042 28.8184 42.0524C28.1351 42.5383 27.5381 43.1352 27.0523 43.8185C26.5041 44.5895 26.1516 45.506 25.4466 47.3391L22.5 55.0001Z" fill="url(#paint1_linear_67_31024)"/>
<defs>
<linearGradient id="paint0_linear_67_31024" x1="57.2653" y1="10.7174" x2="25.3254" y2="11.4432" gradientUnits="userSpaceOnUse">
<stop stop-color="#1D1834"/>
<stop offset="1" stop-color="#56479A"/>
</linearGradient>
<linearGradient id="paint1_linear_67_31024" x1="43.5238" y1="28.8939" x2="-6.16045" y2="30.0229" gradientUnits="userSpaceOnUse">
<stop stop-color="#1D1834"/>
<stop offset="1" stop-color="#56479A"/>
</linearGradient>
</defs>
</svg>
