<svg width="60" height="60" viewBox="0 0 60 60" fill="none" xmlns="http://www.w3.org/2000/svg">
<path d="M16.25 32.5L18.2111 36.4223C18.8749 37.7497 19.2067 38.4135 19.6501 38.9886C20.0435 39.499 20.501 39.9565 21.0114 40.3499C21.5865 40.7933 22.2503 41.1251 23.5777 41.7889L27.5 43.75L23.5777 45.7111C22.2503 46.3749 21.5865 46.7067 21.0114 47.1501C20.501 47.5435 20.0435 48.001 19.6501 48.5114C19.2067 49.0865 18.8749 49.7503 18.2111 51.0777L16.25 55L14.2889 51.0777C13.6251 49.7503 13.2933 49.0865 12.8499 48.5114C12.4565 48.001 11.999 47.5435 11.4886 47.1501C10.9135 46.7067 10.2497 46.3749 8.92229 45.7111L5 43.75L8.92229 41.7889C10.2497 41.1251 10.9135 40.7933 11.4886 40.3499C11.999 39.9565 12.4565 39.499 12.8499 38.9886C13.2933 38.4135 13.6251 37.7497 14.2889 36.4223L16.25 32.5Z" fill="url(#paint0_linear_67_31023)"/>
<path d="M37.5 4.99988L40.4466 12.6609C41.1516 14.494 41.5041 15.4105 42.0523 16.1815C42.5381 16.8648 43.1351 17.4617 43.8184 17.9476C44.5893 18.4958 45.5059 18.8483 47.339 19.5533L55 22.4999L47.339 25.4464C45.5059 26.1515 44.5893 26.504 43.8184 27.0522C43.1351 27.538 42.5381 28.135 42.0523 28.8183C41.5041 29.5892 41.1516 30.5058 40.4466 32.3388L37.5 39.9999L34.5534 32.3388C33.8484 30.5058 33.4959 29.5892 32.9477 28.8183C32.4619 28.135 31.8649 27.538 31.1816 27.0522C30.4107 26.504 29.4941 26.1515 27.661 25.4464L20 22.4999L27.661 19.5533C29.4941 18.8483 30.4107 18.4958 31.1816 17.9476C31.8649 17.4617 32.4619 16.8648 32.9477 16.1815C33.4959 15.4105 33.8484 14.494 34.5534 12.6609L37.5 4.99988Z" fill="url(#paint1_linear_67_31023)"/>
<defs>
<linearGradient id="paint0_linear_67_31023" x1="2.73473" y1="49.2826" x2="34.6746" y2="48.5568" gradientUnits="userSpaceOnUse">
<stop stop-color="#1D1834"/>
<stop offset="1" stop-color="#56479A"/>
</linearGradient>
<linearGradient id="paint1_linear_67_31023" x1="16.4762" y1="31.1061" x2="66.1605" y2="29.9771" gradientUnits="userSpaceOnUse">
<stop stop-color="#1D1834"/>
<stop offset="1" stop-color="#56479A"/>
</linearGradient>
</defs>
</svg>
