<svg width="36" height="36" viewBox="0 0 36 36" fill="none" xmlns="http://www.w3.org/2000/svg">
<g filter="url(#filter0_ddii_1563_11417)">
<g clip-path="url(#clip0_1563_11417)">
<rect x="2" width="32" height="32" rx="16" fill="#DD2590"/>
<rect width="32" height="32" transform="translate(2)" fill="url(#paint0_linear_1563_11417)"/>
<g filter="url(#filter1_d_1563_11417)">
<path fill-rule="evenodd" clip-rule="evenodd" d="M28 16C28 21.5228 23.5228 26 18 26C13.096 26 9.01647 22.47 8.16381 17.8123C8.16124 17.7983 8.1587 17.7842 8.15619 17.7702C8.05356 17.1956 8 16.6041 8 16C8 15.5177 8.03414 15.0434 8.10013 14.5794C8.72389 10.1934 12.1934 6.72389 16.5794 6.10013C16.5868 6.09909 16.5941 6.09805 16.6015 6.09702C17.0585 6.03306 17.5254 6 18 6C18.6188 6 19.2246 6.05621 19.8123 6.16381C24.47 7.01647 28 11.096 28 16ZM25.5 16C25.5 20.1421 22.1421 23.5 18 23.5C14.8786 23.5 12.2025 21.5931 11.0732 18.8808C11.5371 18.9592 12.0138 19 12.5 19C17.1944 19 21 15.1944 21 10.5C21 10.0138 20.9592 9.5371 20.8808 9.0732C23.5931 10.2025 25.5 12.8786 25.5 16ZM18.1592 8.50166C18.3799 9.12675 18.5 9.79935 18.5 10.5C18.5 13.8137 15.8137 16.5 12.5 16.5C11.7993 16.5 11.1267 16.3799 10.5017 16.1592C10.5006 16.1062 10.5 16.0532 10.5 16C10.5 11.8579 13.8579 8.5 18 8.5C18.0532 8.5 18.1062 8.50055 18.1592 8.50166Z" fill="url(#paint1_linear_1563_11417)"/>
</g>
</g>
<rect x="2.7619" y="0.761905" width="30.4762" height="30.4762" rx="15.2381" stroke="#F9FAFB" stroke-width="1.52381"/>
</g>
<defs>
<filter id="filter0_ddii_1563_11417" x="1.19209e-07" y="-2" width="36" height="38" filterUnits="userSpaceOnUse" color-interpolation-filters="sRGB">
<feFlood flood-opacity="0" result="BackgroundImageFix"/>
<feColorMatrix in="SourceAlpha" type="matrix" values="0 0 0 0 0 0 0 0 0 0 0 0 0 0 0 0 0 0 127 0" result="hardAlpha"/>
<feOffset dy="0.666667"/>
<feGaussianBlur stdDeviation="0.333333"/>
<feComposite in2="hardAlpha" operator="out"/>
<feColorMatrix type="matrix" values="0 0 0 0 0.162923 0 0 0 0 0.162923 0 0 0 0 0.162923 0 0 0 0.08 0"/>
<feBlend mode="normal" in2="BackgroundImageFix" result="effect1_dropShadow_1563_11417"/>
<feColorMatrix in="SourceAlpha" type="matrix" values="0 0 0 0 0 0 0 0 0 0 0 0 0 0 0 0 0 0 127 0" result="hardAlpha"/>
<feMorphology radius="0.666667" operator="erode" in="SourceAlpha" result="effect2_dropShadow_1563_11417"/>
<feOffset dy="2"/>
<feGaussianBlur stdDeviation="1.33333"/>
<feComposite in2="hardAlpha" operator="out"/>
<feColorMatrix type="matrix" values="0 0 0 0 0.164706 0 0 0 0 0.164706 0 0 0 0 0.164706 0 0 0 0.14 0"/>
<feBlend mode="normal" in2="effect1_dropShadow_1563_11417" result="effect2_dropShadow_1563_11417"/>
<feBlend mode="normal" in="SourceGraphic" in2="effect2_dropShadow_1563_11417" result="shape"/>
<feColorMatrix in="SourceAlpha" type="matrix" values="0 0 0 0 0 0 0 0 0 0 0 0 0 0 0 0 0 0 127 0" result="hardAlpha"/>
<feOffset dy="-2"/>
<feGaussianBlur stdDeviation="1"/>
<feComposite in2="hardAlpha" operator="arithmetic" k2="-1" k3="1"/>
<feColorMatrix type="matrix" values="0 0 0 0 0 0 0 0 0 0 0 0 0 0 0 0 0 0 0.1 0"/>
<feBlend mode="normal" in2="shape" result="effect3_innerShadow_1563_11417"/>
<feColorMatrix in="SourceAlpha" type="matrix" values="0 0 0 0 0 0 0 0 0 0 0 0 0 0 0 0 0 0 127 0" result="hardAlpha"/>
<feOffset dy="2"/>
<feGaussianBlur stdDeviation="1"/>
<feComposite in2="hardAlpha" operator="arithmetic" k2="-1" k3="1"/>
<feColorMatrix type="matrix" values="0 0 0 0 1 0 0 0 0 1 0 0 0 0 1 0 0 0 0.1 0"/>
<feBlend mode="normal" in2="effect3_innerShadow_1563_11417" result="effect4_innerShadow_1563_11417"/>
</filter>
<filter id="filter1_d_1563_11417" x="6" y="3.5" width="24" height="28" filterUnits="userSpaceOnUse" color-interpolation-filters="sRGB">
<feFlood flood-opacity="0" result="BackgroundImageFix"/>
<feColorMatrix in="SourceAlpha" type="matrix" values="0 0 0 0 0 0 0 0 0 0 0 0 0 0 0 0 0 0 127 0" result="hardAlpha"/>
<feMorphology radius="1" operator="erode" in="SourceAlpha" result="effect1_dropShadow_1563_11417"/>
<feOffset dy="1.5"/>
<feGaussianBlur stdDeviation="1.5"/>
<feComposite in2="hardAlpha" operator="out"/>
<feColorMatrix type="matrix" values="0 0 0 0 0.141176 0 0 0 0 0.141176 0 0 0 0 0.141176 0 0 0 0.1 0"/>
<feBlend mode="normal" in2="BackgroundImageFix" result="effect1_dropShadow_1563_11417"/>
<feBlend mode="normal" in="SourceGraphic" in2="effect1_dropShadow_1563_11417" result="shape"/>
</filter>
<linearGradient id="paint0_linear_1563_11417" x1="16" y1="3.97364e-07" x2="17.3333" y2="32" gradientUnits="userSpaceOnUse">
<stop stop-color="white" stop-opacity="0"/>
<stop offset="1" stop-color="white" stop-opacity="0.12"/>
</linearGradient>
<linearGradient id="paint1_linear_1563_11417" x1="18" y1="6" x2="18" y2="26" gradientUnits="userSpaceOnUse">
<stop stop-color="white" stop-opacity="0.8"/>
<stop offset="1" stop-color="white" stop-opacity="0.5"/>
</linearGradient>
<clipPath id="clip0_1563_11417">
<rect x="2" width="32" height="32" rx="16" fill="white"/>
</clipPath>
</defs>
</svg>
