<svg width="36" height="36" viewBox="0 0 36 36" fill="none" xmlns="http://www.w3.org/2000/svg">
<g filter="url(#filter0_ddii_1563_11416)">
<g clip-path="url(#clip0_1563_11416)">
<rect x="2" width="32" height="32" rx="16" fill="#444CE7"/>
<rect width="32" height="32" transform="translate(2)" fill="url(#paint0_linear_1563_11416)"/>
<g filter="url(#filter1_d_1563_11416)">
<path fill-rule="evenodd" clip-rule="evenodd" d="M23 18H19.8284C19.298 18 18.7893 18.2107 18.4142 18.5858L17.5858 19.4142C17.2107 19.7893 16.702 20 16.1716 20H13C11.3431 20 10 18.6569 10 17C10 15.3431 11.3431 14 13 14H16.1716C16.702 14 17.2107 13.7893 17.5858 13.4142L18.4142 12.5858C18.7893 12.2107 19.298 12 19.8284 12H23C24.6569 12 26 13.3431 26 15C26 16.6569 24.6569 18 23 18ZM19.8284 14C19.298 14 18.7893 14.2107 18.4142 14.5858L17.5858 15.4142C17.2107 15.7893 16.702 16 16.1716 16H13C12.4477 16 12 16.4477 12 17C12 17.5523 12.4477 18 13 18H16.1716C16.702 18 17.2107 17.7893 17.5858 17.4142L18.4142 16.5858C18.7893 16.2107 19.298 16 19.8284 16H23C23.5523 16 24 15.5523 24 15C24 14.4477 23.5523 14 23 14H19.8284Z" fill="url(#paint1_linear_1563_11416)"/>
<path fill-rule="evenodd" clip-rule="evenodd" d="M23 22H19.8284C19.298 22 18.7893 22.2107 18.4142 22.5858L17.5858 23.4142C17.2107 23.7893 16.702 24 16.1716 24H13C9.13401 24 6 20.866 6 17C6 13.134 9.13401 10 13 10H16.1716C16.702 10 17.2107 9.78929 17.5858 9.41421L18.4142 8.58579C18.7893 8.21071 19.298 8 19.8284 8H23C26.866 8 30 11.134 30 15C30 18.866 26.866 22 23 22ZM19.8284 10C19.298 10 18.7893 10.2107 18.4142 10.5858L17.5858 11.4142C17.2107 11.7893 16.702 12 16.1716 12H13C10.2386 12 8 14.2386 8 17C8 19.7614 10.2386 22 13 22H16.1716C16.702 22 17.2107 21.7893 17.5858 21.4142L18.4142 20.5858C18.7893 20.2107 19.298 20 19.8284 20H23C25.7614 20 28 17.7614 28 15C28 12.2386 25.7614 10 23 10H19.8284Z" fill="url(#paint2_linear_1563_11416)"/>
</g>
</g>
<rect x="2.7619" y="0.761905" width="30.4762" height="30.4762" rx="15.2381" stroke="#F9FAFB" stroke-width="1.52381"/>
</g>
<defs>
<filter id="filter0_ddii_1563_11416" x="1.19209e-07" y="-2" width="36" height="38" filterUnits="userSpaceOnUse" color-interpolation-filters="sRGB">
<feFlood flood-opacity="0" result="BackgroundImageFix"/>
<feColorMatrix in="SourceAlpha" type="matrix" values="0 0 0 0 0 0 0 0 0 0 0 0 0 0 0 0 0 0 127 0" result="hardAlpha"/>
<feOffset dy="0.666667"/>
<feGaussianBlur stdDeviation="0.333333"/>
<feComposite in2="hardAlpha" operator="out"/>
<feColorMatrix type="matrix" values="0 0 0 0 0.162923 0 0 0 0 0.162923 0 0 0 0 0.162923 0 0 0 0.08 0"/>
<feBlend mode="normal" in2="BackgroundImageFix" result="effect1_dropShadow_1563_11416"/>
<feColorMatrix in="SourceAlpha" type="matrix" values="0 0 0 0 0 0 0 0 0 0 0 0 0 0 0 0 0 0 127 0" result="hardAlpha"/>
<feMorphology radius="0.666667" operator="erode" in="SourceAlpha" result="effect2_dropShadow_1563_11416"/>
<feOffset dy="2"/>
<feGaussianBlur stdDeviation="1.33333"/>
<feComposite in2="hardAlpha" operator="out"/>
<feColorMatrix type="matrix" values="0 0 0 0 0.164706 0 0 0 0 0.164706 0 0 0 0 0.164706 0 0 0 0.14 0"/>
<feBlend mode="normal" in2="effect1_dropShadow_1563_11416" result="effect2_dropShadow_1563_11416"/>
<feBlend mode="normal" in="SourceGraphic" in2="effect2_dropShadow_1563_11416" result="shape"/>
<feColorMatrix in="SourceAlpha" type="matrix" values="0 0 0 0 0 0 0 0 0 0 0 0 0 0 0 0 0 0 127 0" result="hardAlpha"/>
<feOffset dy="-2"/>
<feGaussianBlur stdDeviation="1"/>
<feComposite in2="hardAlpha" operator="arithmetic" k2="-1" k3="1"/>
<feColorMatrix type="matrix" values="0 0 0 0 0 0 0 0 0 0 0 0 0 0 0 0 0 0 0.1 0"/>
<feBlend mode="normal" in2="shape" result="effect3_innerShadow_1563_11416"/>
<feColorMatrix in="SourceAlpha" type="matrix" values="0 0 0 0 0 0 0 0 0 0 0 0 0 0 0 0 0 0 127 0" result="hardAlpha"/>
<feOffset dy="2"/>
<feGaussianBlur stdDeviation="1"/>
<feComposite in2="hardAlpha" operator="arithmetic" k2="-1" k3="1"/>
<feColorMatrix type="matrix" values="0 0 0 0 1 0 0 0 0 1 0 0 0 0 1 0 0 0 0.1 0"/>
<feBlend mode="normal" in2="effect3_innerShadow_1563_11416" result="effect4_innerShadow_1563_11416"/>
</filter>
<filter id="filter1_d_1563_11416" x="4" y="3.5" width="28" height="28" filterUnits="userSpaceOnUse" color-interpolation-filters="sRGB">
<feFlood flood-opacity="0" result="BackgroundImageFix"/>
<feColorMatrix in="SourceAlpha" type="matrix" values="0 0 0 0 0 0 0 0 0 0 0 0 0 0 0 0 0 0 127 0" result="hardAlpha"/>
<feMorphology radius="1" operator="erode" in="SourceAlpha" result="effect1_dropShadow_1563_11416"/>
<feOffset dy="1.5"/>
<feGaussianBlur stdDeviation="1.5"/>
<feComposite in2="hardAlpha" operator="out"/>
<feColorMatrix type="matrix" values="0 0 0 0 0.141176 0 0 0 0 0.141176 0 0 0 0 0.141176 0 0 0 0.1 0"/>
<feBlend mode="normal" in2="BackgroundImageFix" result="effect1_dropShadow_1563_11416"/>
<feBlend mode="normal" in="SourceGraphic" in2="effect1_dropShadow_1563_11416" result="shape"/>
</filter>
<linearGradient id="paint0_linear_1563_11416" x1="16" y1="3.97364e-07" x2="17.3333" y2="32" gradientUnits="userSpaceOnUse">
<stop stop-color="white" stop-opacity="0"/>
<stop offset="1" stop-color="white" stop-opacity="0.12"/>
</linearGradient>
<linearGradient id="paint1_linear_1563_11416" x1="18" y1="8" x2="18" y2="24" gradientUnits="userSpaceOnUse">
<stop stop-color="white" stop-opacity="0.8"/>
<stop offset="1" stop-color="white" stop-opacity="0.5"/>
</linearGradient>
<linearGradient id="paint2_linear_1563_11416" x1="18" y1="8" x2="18" y2="24" gradientUnits="userSpaceOnUse">
<stop stop-color="white" stop-opacity="0.8"/>
<stop offset="1" stop-color="white" stop-opacity="0.5"/>
</linearGradient>
<clipPath id="clip0_1563_11416">
<rect x="2" width="32" height="32" rx="16" fill="white"/>
</clipPath>
</defs>
</svg>
