<svg width="20" height="20" viewBox="0 0 20 20" fill="none" xmlns="http://www.w3.org/2000/svg">
<path d="M9.66113 0.151367C14.9135 0.151367 19.1717 4.40877 19.1719 9.66113C19.1719 14.9137 14.9137 19.1719 9.66113 19.1719C4.40877 19.1717 0.151367 14.9135 0.151367 9.66113C0.151581 4.4089 4.4089 0.151581 9.66113 0.151367Z" stroke="#E4E7EC" stroke-width="0.301923"/>
<g clip-path="url(#clip0_1888_53703)">
<path d="M4.90332 11.9521H3.62305V8.99121H4.90332V11.9521ZM7.22363 11.9492H5.94336V7.70801H7.22363V11.9492ZM9.58496 11.875H8.32422V6.34668H9.58496V11.875ZM13.2637 7.61816C13.8074 7.61826 14.234 7.78641 14.543 8.12305C14.8524 8.45997 15.0078 8.91564 15.0078 9.48926V11.875H13.8018V9.61523C13.8017 9.31065 13.729 9.07324 13.584 8.90234C13.4386 8.73098 13.2365 8.64454 12.9775 8.64453C12.7029 8.64453 12.4806 8.73998 12.3115 8.92969C12.1426 9.119 12.0586 9.3771 12.0586 9.70312V11.875H10.8535V7.72852H11.749L11.876 8.19434C12.0451 7.9994 12.2501 7.85513 12.4902 7.76074C12.7307 7.66603 12.9886 7.61816 13.2637 7.61816Z" fill="#42307D"/>
</g>
<defs>
<clipPath id="clip0_1888_53703">
<rect width="12.3788" height="7.81855" fill="white" transform="translate(3.62305 5.63574)"/>
</clipPath>
</defs>
</svg>
