<svg width="13" height="13" viewBox="0 0 13 13" fill="none" xmlns="http://www.w3.org/2000/svg">
<g clip-path="url(#clip0_1883_4134)">
<path d="M11.5099 5.23184H1.04639M5.75497 7.32455H3.13909M1.04639 4.29013L1.04639 8.26626C1.04639 8.85227 1.04639 9.14528 1.16043 9.36911C1.26075 9.56599 1.42082 9.72606 1.6177 9.82638C1.84153 9.94042 2.13454 9.94042 2.72055 9.94042L9.83574 9.94042C10.4217 9.94042 10.7148 9.94042 10.9386 9.82638C11.1355 9.72606 11.2955 9.56599 11.3959 9.36911C11.5099 9.14528 11.5099 8.85227 11.5099 8.26626V4.29013C11.5099 3.70412 11.5099 3.41111 11.3959 3.18729C11.2955 2.9904 11.1355 2.83033 10.9386 2.73001C10.7148 2.61597 10.4217 2.61597 9.83574 2.61597L2.72055 2.61597C2.13454 2.61597 1.84153 2.61597 1.6177 2.73001C1.42082 2.83033 1.26075 2.9904 1.16043 3.18728C1.04639 3.41111 1.04639 3.70412 1.04639 4.29013Z" stroke="url(#paint0_linear_1883_4134)" stroke-width="1.04635" stroke-linecap="round" stroke-linejoin="round"/>
</g>
<defs>
<linearGradient id="paint0_linear_1883_4134" x1="-0.00706649" y1="8.07922" x2="14.8384" y2="7.59732" gradientUnits="userSpaceOnUse">
<stop stop-color="#1D1834"/>
<stop offset="1" stop-color="#56479A"/>
</linearGradient>
<clipPath id="clip0_1883_4134">
<rect width="12.5562" height="12.5562" fill="white"/>
</clipPath>
</defs>
</svg>
