<svg width="20" height="20" viewBox="0 0 20 20" fill="none" xmlns="http://www.w3.org/2000/svg">
<path d="M10 4.99992C10.4603 4.99992 10.8334 4.62682 10.8334 4.16659C10.8334 3.70635 10.4603 3.33325 10 3.33325C9.5398 3.33325 9.16671 3.70635 9.16671 4.16659C9.16671 4.62682 9.5398 4.99992 10 4.99992Z" stroke="#344054" stroke-width="1.66667" stroke-linecap="round" stroke-linejoin="round"/>
<path d="M10 10.8333C10.4603 10.8333 10.8334 10.4602 10.8334 9.99992C10.8334 9.53968 10.4603 9.16659 10 9.16659C9.5398 9.16659 9.16671 9.53968 9.16671 9.99992C9.16671 10.4602 9.5398 10.8333 10 10.8333Z" stroke="#344054" stroke-width="1.66667" stroke-linecap="round" stroke-linejoin="round"/>
<path d="M10 16.6666C10.4603 16.6666 10.8334 16.2935 10.8334 15.8333C10.8334 15.373 10.4603 14.9999 10 14.9999C9.5398 14.9999 9.16671 15.373 9.16671 15.8333C9.16671 16.2935 9.5398 16.6666 10 16.6666Z" stroke="#344054" stroke-width="1.66667" stroke-linecap="round" stroke-linejoin="round"/>
<path d="M15.8334 4.99992C16.2936 4.99992 16.6667 4.62682 16.6667 4.16659C16.6667 3.70635 16.2936 3.33325 15.8334 3.33325C15.3731 3.33325 15 3.70635 15 4.16659C15 4.62682 15.3731 4.99992 15.8334 4.99992Z" stroke="#344054" stroke-width="1.66667" stroke-linecap="round" stroke-linejoin="round"/>
<path d="M15.8334 10.8333C16.2936 10.8333 16.6667 10.4602 16.6667 9.99992C16.6667 9.53968 16.2936 9.16659 15.8334 9.16659C15.3731 9.16659 15 9.53968 15 9.99992C15 10.4602 15.3731 10.8333 15.8334 10.8333Z" stroke="#344054" stroke-width="1.66667" stroke-linecap="round" stroke-linejoin="round"/>
<path d="M15.8334 16.6666C16.2936 16.6666 16.6667 16.2935 16.6667 15.8333C16.6667 15.373 16.2936 14.9999 15.8334 14.9999C15.3731 14.9999 15 15.373 15 15.8333C15 16.2935 15.3731 16.6666 15.8334 16.6666Z" stroke="#344054" stroke-width="1.66667" stroke-linecap="round" stroke-linejoin="round"/>
<path d="M4.16671 4.99992C4.62694 4.99992 5.00004 4.62682 5.00004 4.16659C5.00004 3.70635 4.62694 3.33325 4.16671 3.33325C3.70647 3.33325 3.33337 3.70635 3.33337 4.16659C3.33337 4.62682 3.70647 4.99992 4.16671 4.99992Z" stroke="#344054" stroke-width="1.66667" stroke-linecap="round" stroke-linejoin="round"/>
<path d="M4.16671 10.8333C4.62694 10.8333 5.00004 10.4602 5.00004 9.99992C5.00004 9.53968 4.62694 9.16659 4.16671 9.16659C3.70647 9.16659 3.33337 9.53968 3.33337 9.99992C3.33337 10.4602 3.70647 10.8333 4.16671 10.8333Z" stroke="#344054" stroke-width="1.66667" stroke-linecap="round" stroke-linejoin="round"/>
<path d="M4.16671 16.6666C4.62694 16.6666 5.00004 16.2935 5.00004 15.8333C5.00004 15.373 4.62694 14.9999 4.16671 14.9999C3.70647 14.9999 3.33337 15.373 3.33337 15.8333C3.33337 16.2935 3.70647 16.6666 4.16671 16.6666Z" stroke="#344054" stroke-width="1.66667" stroke-linecap="round" stroke-linejoin="round"/>
</svg>
