<svg width="24" height="24" viewBox="0 0 24 24" fill="none" xmlns="http://www.w3.org/2000/svg">
<path d="M7.7517 2.90674H7.5579C5.92984 2.90674 5.11581 2.90674 4.49398 3.22358C3.94699 3.50228 3.50228 3.94699 3.22358 4.49398C2.90674 5.11581 2.90674 5.92984 2.90674 7.5579V7.7517M7.7517 20.3486H7.5579C5.92984 20.3486 5.11581 20.3486 4.49398 20.0318C3.94699 19.7531 3.50228 19.3083 3.22358 18.7614C2.90674 18.1395 2.90674 17.3255 2.90674 15.6974V15.5036M20.3486 7.7517V7.5579C20.3486 5.92984 20.3486 5.11581 20.0318 4.49398C19.7531 3.94699 19.3083 3.50228 18.7614 3.22358C18.1395 2.90674 17.3255 2.90674 15.6974 2.90674H15.5036M20.3486 15.5036V15.6974C20.3486 17.3255 20.3486 18.1395 20.0318 18.7614C19.7531 19.3083 19.3083 19.7531 18.7614 20.0318C18.1395 20.3486 17.3255 20.3486 15.6974 20.3486H15.5036M7.2672 7.7517V9.20519M15.9881 7.7517V9.20519M10.6587 12.2092C11.4339 12.2092 12.1122 11.5309 12.1122 10.7557V7.7517M14.7286 14.7284C12.9844 16.4726 10.1744 16.4726 8.43018 14.7284" stroke="url(#paint0_linear_67_33065)" stroke-width="1.35465" stroke-linecap="round" stroke-linejoin="round"/>
<defs>
<linearGradient id="paint0_linear_67_33065" x1="1.15071" y1="15.9165" x2="25.9103" y2="15.3539" gradientUnits="userSpaceOnUse">
<stop stop-color="#1D1834"/>
<stop offset="1" stop-color="#56479A"/>
</linearGradient>
</defs>
</svg>
