<svg width="16" height="16" viewBox="0 0 16 16" fill="none" xmlns="http://www.w3.org/2000/svg">
<g clip-path="url(#clip0_1888_53441)">
<path d="M8.57425 1.7976L8.74917 4.29906C8.77289 4.63822 8.78474 4.80781 8.85981 4.93274C8.92584 5.04263 9.02496 5.12879 9.14297 5.17889C9.27713 5.23583 9.44672 5.22398 9.78589 5.20026L12.2873 5.02534M10.2399 8.21128L5.39506 8.55006M10.4093 10.6337L5.56445 10.9725M6.43687 6.04296L5.22567 6.12766M8.56284 1.63437L5.41372 1.85458C4.39621 1.92573 3.88746 1.96131 3.51267 2.1865C3.183 2.38459 2.9245 2.68196 2.77422 3.03599C2.60338 3.43847 2.63895 3.94723 2.7101 4.96473L3.15052 11.263C3.22167 12.2805 3.25725 12.7892 3.48244 13.164C3.68053 13.4937 3.9779 13.7522 4.33193 13.9025C4.73441 14.0733 5.24317 14.0377 6.26067 13.9666L10.1365 13.6956C11.154 13.6244 11.6628 13.5888 12.0376 13.3636C12.3672 13.1655 12.6257 12.8682 12.776 12.5141C12.9468 12.1117 12.9113 11.6029 12.8401 10.5854L12.4505 5.01389L8.56284 1.63437Z" stroke="#667085" stroke-width="1.11009" stroke-linecap="round" stroke-linejoin="round"/>
</g>
<defs>
<clipPath id="clip0_1888_53441">
<rect width="14.5699" height="14.5699" fill="white" transform="translate(0 1.01634) rotate(-4)"/>
</clipPath>
</defs>
</svg>
