<svg width="13" height="13" viewBox="0 0 13 13" fill="none" xmlns="http://www.w3.org/2000/svg">
<g clip-path="url(#clip0_1883_6389)">
<path d="M6.93742 1.27404L8.34913 1.32334C9.22761 1.35402 9.66685 1.36936 9.99642 1.55204C10.2863 1.71273 10.5179 1.96107 10.658 2.26147C10.8172 2.60297 10.8019 3.04221 10.7712 3.92069L10.5813 9.35841C10.5506 10.2369 10.5353 10.6761 10.3526 11.0057C10.1919 11.2956 9.94358 11.5272 9.64319 11.6672C9.30168 11.8265 8.86244 11.8112 7.98396 11.7805L4.63767 11.6636C3.75919 11.6329 3.31995 11.6176 2.99039 11.4349C2.70049 11.2742 2.46891 11.0259 2.32883 10.7255C2.16959 10.384 2.18493 9.94475 2.2156 9.06627L2.22838 8.70027M8.56657 7.08937L6.21371 7.00721M8.6396 4.99795L6.80961 4.93404M8.49354 9.1808L4.31068 9.03473M3.39278 5.33822L3.4932 2.4625C3.50833 2.02936 3.87172 1.69048 4.30487 1.70561C4.73802 1.72073 5.0769 2.08413 5.06177 2.51728L4.96135 5.39299C4.9311 6.25929 4.2043 6.93704 3.338 6.90679C2.4717 6.87654 1.79396 6.14974 1.82421 5.28344L1.89724 3.19201" stroke="url(#paint0_linear_1883_6389)" stroke-width="1.04635" stroke-linecap="round" stroke-linejoin="round"/>
</g>
<defs>
<linearGradient id="paint0_linear_1883_6389" x1="0.803008" y1="8.86923" x2="13.4311" y2="9.06618" gradientUnits="userSpaceOnUse">
<stop stop-color="#1D1834"/>
<stop offset="1" stop-color="#56479A"/>
</linearGradient>
<clipPath id="clip0_1883_6389">
<rect width="12.5562" height="12.5562" fill="white" transform="translate(0.438232) rotate(2)"/>
</clipPath>
</defs>
</svg>
