<svg width="24" height="24" viewBox="0 0 24 24" fill="none" xmlns="http://www.w3.org/2000/svg">
<path d="M19.3799 9.68993V6.58915C19.3799 4.96109 19.3799 4.14706 19.063 3.52523C18.7843 2.97824 18.3396 2.53353 17.7926 2.25483C17.1708 1.93799 16.3568 1.93799 14.7287 1.93799H8.52714C6.89908 1.93799 6.08505 1.93799 5.46321 2.25483C4.91623 2.53353 4.47152 2.97824 4.19282 3.52523C3.87598 4.14706 3.87598 4.96109 3.87598 6.58915V16.6667C3.87598 18.2947 3.87598 19.1088 4.19282 19.7306C4.47152 20.2776 4.91623 20.7223 5.46321 21.001C6.08505 21.3178 6.89908 21.3178 8.52714 21.3178H10.1744M12.5969 10.6589H7.75195M10.6589 14.5349H7.75195M15.5039 6.78295H7.75195M18.6531 16.4729V14.7771C18.6531 13.8406 17.8939 13.0814 16.9574 13.0814C16.0208 13.0814 15.2616 13.8406 15.2616 14.7771V16.4729M15.1163 20.3488H18.7985C19.3411 20.3488 19.6125 20.3488 19.8198 20.2432C20.0021 20.1503 20.1503 20.0021 20.2432 19.8198C20.3488 19.6125 20.3488 19.3411 20.3488 18.7985V18.0233C20.3488 17.4806 20.3488 17.2092 20.2432 17.002C20.1503 16.8196 20.0021 16.6714 19.8198 16.5785C19.6125 16.4729 19.3411 16.4729 18.7985 16.4729H15.1163C14.5736 16.4729 14.3023 16.4729 14.095 16.5785C13.9127 16.6714 13.7644 16.8196 13.6715 17.002C13.5659 17.2092 13.5659 17.4806 13.5659 18.0233V18.7985C13.5659 19.3411 13.5659 19.6125 13.6715 19.8198C13.7644 20.0021 13.9127 20.1503 14.095 20.2432C14.3023 20.3488 14.5736 20.3488 15.1163 20.3488Z" stroke="url(#paint0_linear_67_33048)" stroke-width="1.35465" stroke-linecap="round" stroke-linejoin="round"/>
<defs>
<linearGradient id="paint0_linear_67_33048" x1="2.21751" y1="16.3933" x2="25.6049" y2="15.9415" gradientUnits="userSpaceOnUse">
<stop stop-color="#1D1834"/>
<stop offset="1" stop-color="#56479A"/>
</linearGradient>
</defs>
</svg>
