<svg width="31" height="34" viewBox="0 0 31 34" fill="none" xmlns="http://www.w3.org/2000/svg">
<path d="M28.6475 14.041L1.91543 13.1075M21.6368 1.90076L21.4294 7.84122M9.7559 1.48587L9.54845 7.42633M8.42165 31.1778L20.8966 31.6134C23.3918 31.7006 24.6395 31.7441 25.6095 31.2918C26.4627 30.894 27.1681 30.2362 27.6245 29.4128C28.1434 28.4767 28.187 27.2291 28.2741 24.7338L28.7097 12.2589C28.7969 9.76363 28.8404 8.51601 28.3881 7.546C27.9902 6.69276 27.3325 5.98738 26.5091 5.53095C25.573 5.01207 24.3254 4.9685 21.8301 4.88136L9.35515 4.44573C6.85993 4.35859 5.61231 4.31503 4.6423 4.76735C3.78906 5.16522 3.08368 5.823 2.62725 6.64641C2.10837 7.58251 2.0648 8.83012 1.97766 11.3253L1.54203 23.8003C1.45489 26.2955 1.41133 27.5432 1.86365 28.5132C2.26152 29.3664 2.9193 30.0718 3.74271 30.5282C4.67881 31.0471 5.92642 31.0907 8.42165 31.1778Z" stroke="white" stroke-width="2.97204" stroke-linecap="round" stroke-linejoin="round"/>
</svg>
