<svg width="33" height="31" viewBox="0 0 33 31" fill="none" xmlns="http://www.w3.org/2000/svg">
<path d="M10.1728 13.2384L5.86597 13.088C5.03422 13.059 4.61835 13.0445 4.29501 13.1952C4.0106 13.3279 3.77547 13.5471 3.62333 13.8216C3.45037 14.1336 3.43585 14.5495 3.4068 15.3812L2.97117 27.8562M23.5388 13.7052L27.8457 13.8556C28.6774 13.8846 29.0933 13.8991 29.4053 14.0721C29.6798 14.2242 29.8991 14.4594 30.0317 14.7438C30.1825 15.0671 30.1679 15.483 30.1389 16.3147L29.7032 28.7897M23.0202 28.5563L23.7878 6.57663C23.8459 4.91314 23.8749 4.0814 23.5734 3.43472C23.3081 2.8659 22.8696 2.39564 22.3207 2.09136C21.6966 1.74543 20.8648 1.71639 19.2014 1.6583L15.3401 1.52346C13.6766 1.46537 12.8448 1.43632 12.1982 1.73787C11.6293 2.00312 11.1591 2.44164 10.8548 2.99058C10.5089 3.61464 10.4798 4.44639 10.4217 6.10987L9.65419 28.0896M31.1884 28.8416L1.48605 27.8043M15.5782 7.47948L18.5484 7.5832M15.3707 13.4199L18.3409 13.5237M15.1633 19.3604L18.1335 19.4641" stroke="white" stroke-width="2.97204" stroke-linecap="round" stroke-linejoin="round"/>
</svg>
