<svg width="20" height="20" viewBox="0 0 20 20" fill="none" xmlns="http://www.w3.org/2000/svg">
<g clip-path="url(#clip0_1883_5277)">
<path d="M11.708 4.99984C12.522 5.15864 13.27 5.55672 13.8564 6.14312C14.4428 6.72952 14.8409 7.47756 14.9997 8.2915M11.708 1.6665C13.3991 1.85437 14.976 2.61165 16.1799 3.81401C17.3838 5.01637 18.143 6.59235 18.333 8.28317M8.52216 11.5524C7.52084 10.5511 6.73019 9.41888 6.15019 8.21086C6.1003 8.10695 6.07536 8.055 6.05619 7.98926C5.98809 7.75563 6.03701 7.46875 6.17868 7.27089C6.21855 7.21521 6.26618 7.16758 6.36144 7.07232C6.65278 6.78098 6.79845 6.63531 6.89369 6.48883C7.25285 5.93642 7.25285 5.22427 6.89369 4.67186C6.79845 4.52538 6.65278 4.37971 6.36144 4.08837L6.19905 3.92598C5.75618 3.48311 5.53475 3.26168 5.29693 3.14139C4.82396 2.90217 4.26541 2.90217 3.79244 3.14139C3.55462 3.26168 3.33319 3.48311 2.89032 3.92598L2.75896 4.05735C2.3176 4.4987 2.09693 4.71937 1.92839 5.0194C1.74137 5.35232 1.6069 5.8694 1.60804 6.25125C1.60906 6.59537 1.67582 6.83056 1.80932 7.30093C2.5268 9.82876 3.88053 12.2141 5.87051 14.204C7.86049 16.194 10.2458 17.5478 12.7736 18.2652C13.244 18.3987 13.4792 18.4655 13.8233 18.4665C14.2052 18.4677 14.7222 18.3332 15.0552 18.1462C15.3552 17.9776 15.5759 17.757 16.0172 17.3156L16.1486 17.1842C16.5914 16.7414 16.8129 16.5199 16.9332 16.2821C17.1724 15.8091 17.1724 15.2506 16.9332 14.7776C16.8129 14.5398 16.5914 14.3184 16.1486 13.8755L15.9862 13.7131C15.6948 13.4218 15.5492 13.2761 15.4027 13.1809C14.8503 12.8217 14.1381 12.8217 13.5857 13.1809C13.4392 13.2761 13.2936 13.4218 13.0022 13.7131C12.907 13.8084 12.8593 13.856 12.8037 13.8959C12.6058 14.0375 12.3189 14.0865 12.0853 14.0184C12.0196 13.9992 11.9676 13.9743 11.8637 13.9244C10.6557 13.3444 9.52347 12.5537 8.52216 11.5524Z" stroke="url(#paint0_linear_1883_5277)" stroke-width="1.66667" stroke-linecap="round" stroke-linejoin="round"/>
</g>
<defs>
<linearGradient id="paint0_linear_1883_5277" x1="-0.0758175" y1="14.1975" x2="23.6662" y2="13.6604" gradientUnits="userSpaceOnUse">
<stop stop-color="#1D1834"/>
<stop offset="1" stop-color="#56479A"/>
</linearGradient>
<clipPath id="clip0_1883_5277">
<rect width="20" height="20" fill="white"/>
</clipPath>
</defs>
</svg>
