<svg width="20" height="20" viewBox="0 0 20 20" fill="none" xmlns="http://www.w3.org/2000/svg">
<g clip-path="url(#clip0_1883_1948)">
<path d="M2.08377 10.8333H7.08377M12.9171 10.8333H17.9171M10.0004 5.83329V17.5M10.0004 5.83329C11.151 5.83329 12.0838 4.90055 12.0838 3.74996M10.0004 5.83329C8.84984 5.83329 7.9171 4.90055 7.9171 3.74996M3.33377 17.5L16.6671 17.5M3.33377 3.74997L7.9171 3.74996M7.9171 3.74996C7.9171 2.59937 8.84984 1.66663 10.0004 1.66663C11.151 1.66663 12.0838 2.59937 12.0838 3.74996M12.0838 3.74996L16.6671 3.74996M7.4008 11.9469C7.06689 13.2254 5.93219 14.1666 4.58377 14.1666C3.23535 14.1666 2.10065 13.2254 1.76674 11.9469C1.73945 11.8425 1.72581 11.7902 1.7245 11.5815C1.72369 11.4536 1.77124 11.1586 1.8122 11.0374C1.87902 10.8397 1.95136 10.7281 2.09603 10.5049L4.58377 6.66663L7.07151 10.5049C7.21618 10.7281 7.28851 10.8397 7.35534 11.0374C7.3963 11.1586 7.44385 11.4536 7.44304 11.5815C7.44173 11.7902 7.42808 11.8425 7.4008 11.9469ZM18.2341 11.9469C17.9002 13.2254 16.7655 14.1666 15.4171 14.1666C14.0687 14.1666 12.934 13.2254 12.6001 11.9469C12.5728 11.8425 12.5591 11.7902 12.5578 11.5815C12.557 11.4536 12.6046 11.1586 12.6455 11.0374C12.7124 10.8397 12.7847 10.7281 12.9294 10.5049L15.4171 6.66663L17.9048 10.5049C18.0495 10.7281 18.1218 10.8397 18.1887 11.0374C18.2296 11.1586 18.2772 11.4536 18.2764 11.5815C18.2751 11.7902 18.2614 11.8425 18.2341 11.9469Z" stroke="#344054" stroke-width="1.66667" stroke-linecap="round" stroke-linejoin="round"/>
</g>
<defs>
<clipPath id="clip0_1883_1948">
<rect width="20" height="20" fill="white"/>
</clipPath>
</defs>
</svg>
