<svg width="20" height="20" viewBox="0 0 20 20" fill="none" xmlns="http://www.w3.org/2000/svg">
<g clip-path="url(#clip0_1870_2978)">
<path d="M10 2.08333V17.9167M16.6667 9.99999C16.6667 14.0904 12.2051 17.0653 10.5817 18.0124C10.3972 18.12 10.305 18.1738 10.1748 18.2018C10.0737 18.2234 9.92634 18.2234 9.82531 18.2018C9.69512 18.1738 9.60287 18.12 9.41838 18.0124C7.79501 17.0653 3.33337 14.0904 3.33337 9.99999V6.01466C3.33337 5.3484 3.33337 5.01527 3.44234 4.72891C3.5386 4.47594 3.69503 4.25023 3.89809 4.07127C4.12795 3.86869 4.43987 3.75172 5.06371 3.51778L9.53188 1.84222C9.70512 1.77725 9.79175 1.74477 9.88086 1.73189C9.9599 1.72047 10.0402 1.72047 10.1192 1.73189C10.2083 1.74477 10.295 1.77725 10.4682 1.84222L14.9364 3.51778C15.5602 3.75172 15.8721 3.86869 16.102 4.07127C16.3051 4.25023 16.4615 4.47594 16.5577 4.72891C16.6667 5.01527 16.6667 5.3484 16.6667 6.01466V9.99999Z" stroke="#344054" stroke-width="1.66667" stroke-linecap="round" stroke-linejoin="round"/>
</g>
<defs>
<clipPath id="clip0_1870_2978">
<rect width="20" height="20" fill="white"/>
</clipPath>
</defs>
</svg>
