<svg width="16" height="16" viewBox="0 0 16 16" fill="none" xmlns="http://www.w3.org/2000/svg">
<g clip-path="url(#clip0_1888_54738)">
<path d="M4.48692 8.61385L5.02843 9.53076C5.2117 9.84108 5.30333 9.99624 5.42047 10.1281C5.52441 10.245 5.643 10.3481 5.77329 10.4348C5.92013 10.5324 6.08653 10.6016 6.41933 10.7399L7.40269 11.1485L6.48577 11.69C6.17545 11.8733 6.0203 11.9649 5.88848 12.082C5.77151 12.186 5.66843 12.3046 5.58178 12.4348C5.48412 12.5817 5.41497 12.7481 5.27668 13.0809L4.86805 14.0642L4.32654 13.1473C4.14328 12.837 4.05165 12.6819 3.93451 12.55C3.83056 12.4331 3.71198 12.33 3.58168 12.2433C3.43485 12.1457 3.26845 12.0765 2.93564 11.9382L1.95229 11.5296L2.8692 10.9881C3.17952 10.8048 3.33468 10.7132 3.4665 10.5961C3.58346 10.4921 3.68655 10.3735 3.7732 10.2432C3.87085 10.0964 3.94 9.93 4.0783 9.5972L4.48692 8.61385Z" stroke="#667085" stroke-width="1.11009" stroke-linecap="round" stroke-linejoin="round"/>
<path d="M9.1687 1.59229L10.0122 3.39819C10.2141 3.83029 10.315 4.04634 10.4609 4.22381C10.5901 4.3811 10.7448 4.5156 10.9186 4.62172C11.1146 4.74145 11.3426 4.81132 11.7986 4.95105L13.7043 5.53506L11.8984 6.3786C11.4663 6.58044 11.2503 6.68136 11.0728 6.82721C10.9155 6.95647 10.781 7.1112 10.6749 7.28495C10.5552 7.48099 10.4853 7.70898 10.3456 8.16497L9.76157 10.0707L8.91802 8.26479C8.71619 7.83269 8.61527 7.61664 8.46941 7.43917C8.34015 7.28188 8.18542 7.14738 8.01168 7.04126C7.81564 6.92153 7.58764 6.85166 7.13166 6.71193L5.22593 6.12792L7.03183 5.28438C7.46393 5.08254 7.67998 4.98162 7.85745 4.83577C8.01474 4.70651 8.14924 4.55178 8.25536 4.37803C8.37509 4.18199 8.44496 3.954 8.5847 3.49801L9.1687 1.59229Z" stroke="#667085" stroke-width="1.11009" stroke-linecap="round" stroke-linejoin="round"/>
</g>
<defs>
<clipPath id="clip0_1888_54738">
<rect width="14.5699" height="14.5699" fill="white" transform="translate(0 1.01634) rotate(-4)"/>
</clipPath>
</defs>
</svg>
