<svg width="14" height="14" viewBox="0 0 14 14" fill="none" xmlns="http://www.w3.org/2000/svg">
<path d="M5.98304 0.473676C6.05647 -0.157866 6.97345 -0.157869 7.04688 0.473672L7.13666 1.24588C7.41151 3.60986 9.21354 5.5088 11.5599 5.90697L12.5838 6.08073C13.1784 6.18162 13.1784 7.03574 12.5838 7.13663L11.5599 7.31039C9.21354 7.70857 7.41151 9.6075 7.13666 11.9715L7.04688 12.7437C6.97345 13.3752 6.05647 13.3752 5.98304 12.7437L5.89326 11.9715C5.61841 9.6075 3.81638 7.70857 1.47002 7.31039L0.446079 7.13663C-0.148463 7.03574 -0.148463 6.18162 0.44608 6.08073L1.47002 5.90697C3.81638 5.50879 5.61841 3.60987 5.89326 1.24589L5.98304 0.473676Z" fill="url(#paint0_linear_1888_53982)"/>
<defs>
<linearGradient id="paint0_linear_1888_53982" x1="-4.5135" y1="11.8757" x2="21.553" y2="11.368" gradientUnits="userSpaceOnUse">
<stop stop-color="#1D1834"/>
<stop offset="1" stop-color="#56479A"/>
</linearGradient>
</defs>
</svg>
