<svg width="21" height="22" viewBox="0 0 21 22" fill="none" xmlns="http://www.w3.org/2000/svg">
<path d="M9.49848 0.577809C9.69294 -0.192546 10.7875 -0.192548 10.9819 0.577807L11.3306 1.959C12.3572 6.02605 15.7267 9.13094 19.853 9.88485C20.6897 10.0377 20.6897 11.2511 19.853 11.404C15.7267 12.1579 12.3572 15.2628 11.3306 19.3298L10.9819 20.711C10.7875 21.4814 9.69294 21.4814 9.49848 20.711L9.14983 19.3298C8.12319 15.2628 4.75372 12.1579 0.627401 11.404C-0.209271 11.2511 -0.209272 10.0377 0.627401 9.88485C4.75372 9.13094 8.12319 6.02605 9.14983 1.959L9.49848 0.577809Z" fill="url(#paint0_linear_1888_53980)"/>
<defs>
<linearGradient id="paint0_linear_1888_53980" x1="-6.30248" y1="17.0401" x2="32.7894" y2="16.0995" gradientUnits="userSpaceOnUse">
<stop stop-color="#1D1834"/>
<stop offset="1" stop-color="#56479A"/>
</linearGradient>
</defs>
</svg>
