<svg width="7" height="7" viewBox="0 0 7 7" fill="none" xmlns="http://www.w3.org/2000/svg">
<path d="M4.97406 1.14105C5.03523 1.289 5.15266 1.4066 5.30051 1.468L5.81897 1.68275C5.96693 1.74404 6.08448 1.86159 6.14577 2.00955C6.20705 2.15751 6.20705 2.32375 6.14577 2.47171L5.93117 2.9898C5.86986 3.13782 5.86977 3.30423 5.93136 3.45219L6.14559 3.97012C6.17597 4.0434 6.19162 4.12195 6.19163 4.20128C6.19164 4.28061 6.17602 4.35917 6.14566 4.43246C6.1153 4.50575 6.0708 4.57234 6.0147 4.62843C5.95859 4.68452 5.89199 4.729 5.81869 4.75933L5.3006 4.97393C5.15265 5.03511 5.03505 5.15253 4.97366 5.30038L4.75891 5.81884C4.69762 5.9668 4.58007 6.08435 4.43211 6.14564C4.28415 6.20693 4.1179 6.20693 3.96994 6.14564L3.45186 5.93104C3.3039 5.86991 3.13771 5.87003 2.98984 5.93139L2.47138 6.14583C2.32351 6.20698 2.1574 6.20693 2.00957 6.14569C1.86173 6.08445 1.74424 5.96704 1.68291 5.81924L1.4681 5.30063C1.40692 5.15268 1.2895 5.03508 1.14164 4.97368L0.623187 4.75893C0.475292 4.69767 0.357774 4.58019 0.296465 4.43232C0.235156 4.28444 0.235072 4.11828 0.296234 3.97034L0.510832 3.45226C0.571967 3.30429 0.571843 3.13811 0.510484 2.99024L0.296195 2.47141C0.265813 2.39813 0.250168 2.31957 0.250156 2.24024C0.250143 2.16091 0.265762 2.08236 0.296121 2.00907C0.326479 1.93577 0.370982 1.86918 0.427086 1.8131C0.48319 1.75701 0.549796 1.71253 0.623098 1.68219L1.14118 1.46759C1.289 1.40647 1.40653 1.2892 1.46797 1.14151L1.68272 0.623058C1.74401 0.475099 1.86156 0.357546 2.00952 0.296259C2.15748 0.234973 2.32373 0.234973 2.47169 0.296259L2.98977 0.510857C3.13773 0.571993 3.30392 0.571868 3.45179 0.51051L3.97047 0.296592C4.1184 0.23534 4.28461 0.235352 4.43254 0.296627C4.58047 0.357901 4.69801 0.475421 4.75931 0.623341L4.97412 1.14195L4.97406 1.14105Z" fill="#7323DB"/>
<path fill-rule="evenodd" clip-rule="evenodd" d="M4.48189 2.37643C4.52492 2.30884 4.53933 2.22694 4.52197 2.14872C4.50461 2.07051 4.45688 2.0024 4.3893 1.95937C4.32172 1.91634 4.23981 1.90193 4.16159 1.91929C4.08338 1.93665 4.01527 1.98438 3.97224 2.05196L2.78991 3.90979L2.24887 3.23348C2.19885 3.17092 2.12602 3.13079 2.04641 3.12192C1.9668 3.11305 1.88693 3.13616 1.82436 3.18618C1.7618 3.2362 1.72167 3.30903 1.7128 3.38864C1.70393 3.46825 1.72704 3.54812 1.77706 3.61069L2.58219 4.6171C2.6122 4.65465 2.65073 4.6845 2.6946 4.70415C2.73847 4.72381 2.78639 4.73271 2.83439 4.73011C2.88239 4.72751 2.92907 4.71349 2.97056 4.68921C3.01205 4.66493 3.04714 4.6311 3.07292 4.59053L4.48189 2.37643V2.37643Z" fill="white"/>
</svg>
