<svg width="70" height="70" viewBox="0 0 70 70" fill="none" xmlns="http://www.w3.org/2000/svg">
<path d="M2.10039 6.68303C2.22928 2.99209 5.32585 0.104486 9.01678 0.233376L62.4809 2.10039C66.1719 2.22928 69.0595 5.32585 68.9306 9.01678L67.0636 62.4809C66.9347 66.1719 63.8381 69.0595 60.1472 68.9306L6.68303 67.0636C2.99209 66.9347 0.104486 63.8381 0.233376 60.1472L2.10039 6.68303Z" fill="url(#paint0_linear_1870_3811)"/>
<g opacity="0.84">
<path fill-rule="evenodd" clip-rule="evenodd" d="M25.6902 39.2795L30.6014 44.5462C33.5901 47.7512 38.6111 47.9265 41.8161 44.9378C42.8731 43.9521 43.6006 42.7454 43.9937 41.4557L47.4235 45.1336C50.4122 48.3386 55.4332 48.5139 58.6382 45.5252C61.8432 42.5365 62.0185 37.5155 59.0298 34.3105L48.2067 22.7042C45.218 19.4992 40.197 19.3239 36.992 22.3126C35.935 23.2983 35.2075 24.505 34.8144 25.7947L31.3847 22.1168C28.396 18.9118 23.375 18.7364 20.17 21.7252L10.619 30.6316C6.94657 34.0562 6.74566 39.8094 10.1702 43.4818C13.5948 47.1542 19.348 47.3551 23.0204 43.9305C24.4106 42.6342 25.3033 41.0041 25.6902 39.2795ZM28.4831 24.8225C26.9887 23.2201 24.4783 23.1324 22.8758 24.6267C21.2739 26.1205 21.1857 28.6294 22.678 30.232L33.503 41.8404C34.9974 43.4429 37.5079 43.5306 39.1104 42.0362C40.712 40.5426 40.8004 38.034 39.3085 36.4314L28.4831 24.8225ZM20.5675 33.7861L17.0726 30.0383L13.3247 33.5332C11.2548 35.4634 11.1416 38.7061 13.0718 40.776C15.002 42.8459 18.2447 42.9592 20.3146 41.029C22.3845 39.0988 22.4977 35.856 20.5675 33.7861ZM39.4988 30.8181C38.0077 29.2155 38.0964 26.7075 39.6978 25.2142C41.3003 23.7198 43.8108 23.8075 45.3051 25.41L56.1282 37.0163C57.6226 38.6188 57.5349 41.1293 55.9324 42.6236C54.3299 44.118 51.8194 44.0303 50.325 42.4278L39.4988 30.8181Z" fill="white"/>
</g>
<defs>
<linearGradient id="paint0_linear_1870_3811" x1="-6.13535" y1="49.6131" x2="88.8086" y2="50.7704" gradientUnits="userSpaceOnUse">
<stop stop-color="#1D1834"/>
<stop offset="1" stop-color="#56479A"/>
</linearGradient>
</defs>
</svg>
